<?xml version="1.0" encoding="iso-8859-1"?>
<!-- Generator: Adobe Illustrator 18.1.1, SVG Export Plug-In . SVG Version: 6.00 Build 0)  -->
<!DOCTYPE svg PUBLIC "-//W3C//DTD SVG 1.1//EN" "http://www.w3.org/Graphics/SVG/1.1/DTD/svg11.dtd">
<svg version="1.1" xmlns="http://www.w3.org/2000/svg" xmlns:xlink="http://www.w3.org/1999/xlink" x="0px" y="0px"
	 viewBox="0 0 48 48" style="enable-background:new 0 0 48 48;" xml:space="preserve">
<g id="Icons">
	<g>
		<path d="M22.277,16.079h2.059l-0.918,2.447c-0.366,0.977,0.821,1.792,1.601,1.099L31,14.309l-5.981-5.317
			c-0.78-0.693-1.967,0.122-1.601,1.099l0.746,1.988h-1.887C15.508,12.079,10,17.587,10,24.356c0,2.407,0.697,4.739,2.017,6.743
			l3.341-2.199C14.469,27.551,14,25.979,14,24.356C14,19.792,17.713,16.079,22.277,16.079z"/>
		<path d="M35.983,16.9L32.643,19.1C33.531,20.449,34,22.021,34,23.644c0,4.564-3.713,8.277-8.277,8.277h-2.059l0.918-2.448
			c0.366-0.977-0.821-1.792-1.601-1.099L17,33.691l5.981,5.316c0.78,0.693,1.967-0.121,1.601-1.099l-0.746-1.988h1.887
			c6.77,0,12.277-5.508,12.277-12.277C38,21.236,37.303,18.904,35.983,16.9z"/>
	</g>
</g>
<g id="Guides" style="display:none;">
</g>
</svg>
