<?xml version="1.0" encoding="iso-8859-1"?>
<!-- Generator: Adobe Illustrator 18.1.1, SVG Export Plug-In . SVG Version: 6.00 Build 0)  -->
<!DOCTYPE svg PUBLIC "-//W3C//DTD SVG 1.1//EN" "http://www.w3.org/Graphics/SVG/1.1/DTD/svg11.dtd">
<svg version="1.1" xmlns="http://www.w3.org/2000/svg" xmlns:xlink="http://www.w3.org/1999/xlink" x="0px" y="0px"
	 viewBox="0 0 48 48" style="enable-background:new 0 0 48 48;" xml:space="preserve">
<g id="Icons">
	<path d="M35.524,12.558l-0.989,2.267C31.971,11.876,28.207,10,24,10c-7.72,0-14,6.28-14,14s6.28,14,14,14
		c7.039,0,12.865-5.227,13.84-12h-4.042c-0.929,4.559-4.969,8-9.798,8c-5.514,0-10-4.486-10-10s4.486-10,10-10
		c3.257,0,6.15,1.569,7.977,3.987l-3.622,1.537c-1.233,0.56-0.891,2.397,0.461,2.477H38v-8.982
		C37.921,11.667,36.084,11.325,35.524,12.558z"/>
</g>
<g id="Guides" style="display:none;">
</g>
</svg>
