<?xml version="1.0" encoding="UTF-8" standalone="no"?>
<svg width="16px" height="16px" viewBox="0 0 16 16" version="1.1" xmlns="http://www.w3.org/2000/svg" xmlns:xlink="http://www.w3.org/1999/xlink">
    <!-- Generator: Sketch 3.7 (28169) - http://www.bohemiancoding.com/sketch -->
    <title>Input / Checkbox Checked</title>
    <desc>Created with Sketch.</desc>
    <defs></defs>
    <g id="Symbols" stroke="none" stroke-width="1" fill="none" fill-rule="evenodd">
        <g id="Input-/-Checkbox-Checked">
            <rect id="Rectangle-120" fill="#C6C9D8" x="0" y="0" width="16" height="16" rx="2"></rect>
            <path d="M6.80908332,10.1351864 L4.42899424,7.75509737 C4.09253171,7.41863484 3.56519583,7.42449052 3.23633326,7.75335308 C2.90517793,8.08450841 2.90825165,8.61618815 3.23807756,8.94601406 L6.21188068,11.9198172 C6.21217151,11.920108 6.21246248,11.9203986 6.21275359,11.9206889 C6.21304361,11.9209797 6.21333416,11.9212707 6.21362497,11.9215615 C6.5447803,12.2527168 7.07450008,12.2516031 7.40190824,11.9241949 L12.7663002,6.55980298 C13.0942432,6.23185994 13.0925293,5.70038227 12.7636667,5.37151971 C12.4325114,5.04036438 11.9027916,5.04147813 11.5753835,5.3688863 L6.80908332,10.1351864 L6.80908332,10.1351864 Z" id="Rectangle-131" fill="#FFFFFF"></path>
        </g>
    </g>
</svg>