<?xml version="1.0" encoding="utf-8"?>
<!-- Generator: Adobe Illustrator 19.2.1, SVG Export Plug-In . SVG Version: 6.00 Build 0)  -->
<svg version="1.1" id="Layer_1" xmlns="http://www.w3.org/2000/svg" xmlns:xlink="http://www.w3.org/1999/xlink" x="0px" y="0px"
	 viewBox="0 0 148 113" style="enable-background:new 0 0 148 113;" xml:space="preserve">
<style type="text/css">
	.st0{fill:none;stroke:#2788E3;stroke-width:3;stroke-linecap:round;stroke-linejoin:round;stroke-miterlimit:10;}
	.st1{fill:none;stroke:#50AAFC;stroke-width:3;stroke-linecap:round;stroke-linejoin:round;stroke-miterlimit:10;}
	.st2{fill:#EFF5FA;}
	.st3{opacity:0.16;fill:#C9DFF7;}
	.st4{opacity:0.16;fill:#2788E3;}
	.st5{opacity:0.16;fill:#9BB1C3;}
	.st6{opacity:0.16;fill:#EFF5FA;}
	.st7{opacity:0.16;fill:#23588C;}
	.st8{opacity:0.16;fill:#4BA8FF;}
	.st9{opacity:0.16;fill:#24D2EF;}
	.st10{opacity:0.16;fill:#F1842B;}
	.st11{opacity:0.16;fill:#FFD209;}
	.st12{opacity:0.16;fill:#106ECA;}
	.st13{opacity:0.16;fill:#C7D8E6;}
	.st14{fill:#FFFFFF;}
	.st15{fill:none;stroke:#32B166;stroke-width:3;stroke-linecap:round;stroke-linejoin:round;stroke-miterlimit:10;}
	.st16{fill:none;stroke:#4BCF85;stroke-width:3;stroke-linecap:round;stroke-linejoin:round;stroke-miterlimit:10;}
</style>
<title>web illustration</title>
<desc>Created with Sketch.</desc>
<path class="st0" d="M54,91.5H17.5c-6.6,0-12-5.4-12-12v-66c0-6.6,5.4-12,12-12h79.4"/>
<line class="st0" x1="1.8" y1="100.5" x2="145.8" y2="100.5"/>
<path class="st1" d="M96.9,1.5h33.6c6.6,0,12,5.4,12,12v66c0,6.6-5.4,12-12,12H54"/>
<path class="st2" d="M129,84H19c-3.3,0-6-2.7-6-6V15c0-3.3,2.7-6,6-6h110c3.3,0,6,2.7,6,6v63C135,81.3,132.3,84,129,84z"/>
<path class="st3" d="M67.5,18h-47c-0.8,0-1.5-0.7-1.5-1.5s0.7-1.5,1.5-1.5h47c0.8,0,1.5,0.7,1.5,1.5C69,17.3,68.3,18,67.5,18z"/>
<path class="st3" d="M40,21H20.5c-0.8,0-1.5,0.7-1.5,1.5s0.7,1.5,1.5,1.5H40c0.8,0,1.5-0.7,1.5-1.5S40.8,21,40,21z"/>
<path class="st4" d="M116.5,16H115v-1.5c0-0.3-0.2-0.5-0.5-0.5s-0.5,0.2-0.5,0.5V16h-1.5c-0.3,0-0.5,0.2-0.5,0.5s0.2,0.5,0.5,0.5
	h1.5v1.5c0,0.3,0.2,0.5,0.5,0.5s0.5-0.2,0.5-0.5V17h1.5c0.3,0,0.5-0.2,0.5-0.5S116.8,16,116.5,16z"/>
<circle class="st5" cx="21" cy="52" r="2"/>
<circle class="st5" cx="21" cy="44" r="2"/>
<circle class="st5" cx="21" cy="36" r="2"/>
<path class="st6" d="M63,54H30c-1.1,0-2-0.9-2-2s0.9-2,2-2h33c1.1,0,2,0.9,2,2S64.1,54,63,54z"/>
<path class="st6" d="M30,46c-1.1,0-2-0.9-2-2s0.9-2,2-2h36.5H73c1.1,0,2,0.9,2,2s-0.9,2-2,2h-3.1H30z"/>
<path class="st6" d="M28,36c0-1.1,0.9-2,2-2h28.1H67c1.1,0,2,0.9,2,2s-0.9,2-2,2h-5.5H30C28.9,38,28,37.1,28,36z"/>
<circle class="st5" cx="21" cy="36" r="2"/>
<circle class="st5" cx="21" cy="44" r="2"/>
<circle class="st5" cx="21" cy="52" r="2"/>
<path class="st7" d="M30,38h31.5H67c1.1,0,2-0.9,2-2s-0.9-2-2-2h-8.9H30c-1.1,0-2,0.9-2,2S28.9,38,30,38z"/>
<path class="st8" d="M63,50H30c-1.1,0-2,0.9-2,2s0.9,2,2,2h33c1.1,0,2-0.9,2-2S64.1,50,63,50z"/>
<circle class="st5" cx="21" cy="60" r="2"/>
<path class="st6" d="M58,62H30c-1.1,0-2-0.9-2-2s0.9-2,2-2h28c1.1,0,2,0.9,2,2S59.1,62,58,62z"/>
<circle class="st5" cx="21" cy="60" r="2"/>
<path class="st9" d="M58,58H30c-1.1,0-2,0.9-2,2s0.9,2,2,2h28c1.1,0,2-0.9,2-2S59.1,58,58,58z"/>
<circle class="st5" cx="21" cy="68" r="2"/>
<path class="st6" d="M48,70H30c-1.1,0-2-0.9-2-2s0.9-2,2-2h18c1.1,0,2,0.9,2,2S49.1,70,48,70z"/>
<circle class="st5" cx="21" cy="68" r="2"/>
<path class="st10" d="M48,66H30c-1.1,0-2,0.9-2,2s0.9,2,2,2h18c1.1,0,2-0.9,2-2S49.1,66,48,66z"/>
<circle class="st5" cx="21" cy="76" r="2"/>
<path class="st6" d="M38,78h-8c-1.1,0-2-0.9-2-2s0.9-2,2-2h8c1.1,0,2,0.9,2,2S39.1,78,38,78z"/>
<circle class="st5" cx="21" cy="76" r="2"/>
<path class="st11" d="M38,74h-8c-1.1,0-2,0.9-2,2s0.9,2,2,2h8c1.1,0,2-0.9,2-2S39.1,74,38,74z"/>
<path class="st12" d="M73,42h-6.5H30c-1.1,0-2,0.9-2,2s0.9,2,2,2h39.9H73c1.1,0,2-0.9,2-2S74.1,42,73,42z"/>
<path class="st13" d="M127,42h-7c-1.1,0-2,0.9-2,2s0.9,2,2,2h7c1.1,0,2-0.9,2-2S128.1,42,127,42z"/>
<path class="st13" d="M127,50h-7c-1.1,0-2,0.9-2,2s0.9,2,2,2h7c1.1,0,2-0.9,2-2S128.1,50,127,50z"/>
<path class="st13" d="M127,58h-7c-1.1,0-2,0.9-2,2s0.9,2,2,2h7c1.1,0,2-0.9,2-2S128.1,58,127,58z"/>
<path class="st13" d="M127,66h-7c-1.1,0-2,0.9-2,2s0.9,2,2,2h7c1.1,0,2-0.9,2-2S128.1,66,127,66z"/>
<path class="st13" d="M127,74h-7c-1.1,0-2,0.9-2,2s0.9,2,2,2h7c1.1,0,2-0.9,2-2S128.1,74,127,74z"/>
<path class="st13" d="M120,38h7c1.1,0,2-0.9,2-2s-0.9-2-2-2h-7c-1.1,0-2,0.9-2,2S118.9,38,120,38z"/>
<path class="st3" d="M105.5,15h-30c-0.8,0-1.5,0.7-1.5,1.5c0,0.8,0.7,1.5,1.5,1.5h30c0.8,0,1.5-0.7,1.5-1.5S106.3,15,105.5,15z"/>
<g>
	<circle class="st14" cx="74.1" cy="47" r="26"/>
	<path class="st15" d="M60.4,65.3c-5.5-4.1-9-10.7-9-18.1c0-12.5,10.2-22.7,22.7-22.7"/>
	<path class="st16" d="M74.1,24.5c8.2,0,15.5,4.4,19.4,11c2.1,3.4,3.3,7.4,3.3,11.7c0,12.5-10.2,22.7-22.7,22.7
		c-5.1,0-9.9-1.7-13.7-4.6"/>
	<line class="st15" x1="63" y1="49.3" x2="69.2" y2="55.6"/>
	<line class="st16" x1="69.2" y1="55.6" x2="85" y2="39.8"/>
</g>
</svg>
