<?xml version="1.0" encoding="utf-8"?>
<!-- Generator: Adobe Illustrator 21.0.0, SVG Export Plug-In . SVG Version: 6.00 Build 0)  -->
<!DOCTYPE svg PUBLIC "-//W3C//DTD SVG 1.1//EN" "http://www.w3.org/Graphics/SVG/1.1/DTD/svg11.dtd">
<svg version="1.1" id="Layer_1" xmlns="http://www.w3.org/2000/svg" xmlns:xlink="http://www.w3.org/1999/xlink" x="0px" y="0px"
	 viewBox="0 0 148 113" style="enable-background:new 0 0 148 113;" xml:space="preserve">
<style type="text/css">
	.st0{fill:none;stroke:#2788E3;stroke-width:3;stroke-linecap:round;stroke-linejoin:round;stroke-miterlimit:10;}
	.st1{fill:none;stroke:#50AAFC;stroke-width:3;stroke-linecap:round;stroke-linejoin:round;stroke-miterlimit:10;}
	.st2{fill:#EFF5FA;}
	.st3{fill:#ACCDE5;}
	.st4{fill:#C9DFF7;}
	.st5{fill:#2788E3;}
	.st6{fill:#9BB1C3;}
	.st7{fill:#23588C;}
	.st8{fill:#4BA8FF;}
	.st9{fill:#24D2EF;}
	.st10{fill:#F1842B;}
	.st11{fill:#FFD209;}
	.st12{fill:#106ECA;}
	.st13{fill:#C7D8E6;}
	.st14{fill:#FFFFFF;}
	.st15{fill:none;}
	.st16{fill:#50AAFF;}
</style>
<title>web illustration</title>
<desc>Created with Sketch.</desc>
<path class="st0" d="M54,91.5H17.5c-6.6,0-12-5.4-12-12v-66c0-6.6,5.4-12,12-12h79.4"/>
<line class="st0" x1="1.8" y1="100.5" x2="145.8" y2="100.5"/>
<path class="st1" d="M96.9,1.5h33.6c6.6,0,12,5.4,12,12v66c0,6.6-5.4,12-12,12H54"/>
<path class="st2" d="M129,84H19c-3.3,0-6-2.7-6-6V15c0-3.3,2.7-6,6-6h110c3.3,0,6,2.7,6,6v63C135,81.3,132.3,84,129,84z"/>
<path class="st3" d="M67.5,18h-47c-0.8,0-1.5-0.7-1.5-1.5s0.7-1.5,1.5-1.5h47c0.8,0,1.5,0.7,1.5,1.5S68.3,18,67.5,18z"/>
<path class="st4" d="M67.5,15h-47c-0.8,0-1.5,0.7-1.5,1.5s0.7,1.5,1.5,1.5h47c0.8,0,1.5-0.7,1.5-1.5S68.3,15,67.5,15z"/>
<path class="st4" d="M40,21H20.5c-0.8,0-1.5,0.7-1.5,1.5s0.7,1.5,1.5,1.5H40c0.8,0,1.5-0.7,1.5-1.5S40.8,21,40,21z"/>
<path class="st4" d="M105.5,15h-30c-0.8,0-1.5,0.7-1.5,1.5s0.7,1.5,1.5,1.5h30c0.8,0,1.5-0.7,1.5-1.5S106.3,15,105.5,15z"/>
<path class="st5" d="M114.5,19L114.5,19c-0.3,0-0.5-0.2-0.5-0.5v-4c0-0.3,0.2-0.5,0.5-0.5l0,0c0.3,0,0.5,0.2,0.5,0.5v4
	C115,18.8,114.8,19,114.5,19z"/>
<path class="st5" d="M112,16.5L112,16.5c0-0.3,0.2-0.5,0.5-0.5h4c0.3,0,0.5,0.2,0.5,0.5l0,0c0,0.3-0.2,0.5-0.5,0.5h-4
	C112.2,17,112,16.8,112,16.5z"/>
<circle class="st6" cx="21" cy="52" r="2"/>
<circle class="st6" cx="21" cy="44" r="2"/>
<circle class="st6" cx="21" cy="36" r="2"/>
<path class="st2" d="M63,54H30c-1.1,0-2-0.9-2-2s0.9-2,2-2h33c1.1,0,2,0.9,2,2S64.1,54,63,54z"/>
<path class="st2" d="M30,46c-1.1,0-2-0.9-2-2s0.9-2,2-2h36.5H73c1.1,0,2,0.9,2,2s-0.9,2-2,2h-3.1H30z"/>
<path class="st2" d="M28,36c0-1.1,0.9-2,2-2h28.1H67c1.1,0,2,0.9,2,2s-0.9,2-2,2h-5.5H30C28.9,38,28,37.1,28,36z"/>
<circle class="st6" cx="21" cy="36" r="2"/>
<circle class="st6" cx="21" cy="44" r="2"/>
<circle class="st6" cx="21" cy="52" r="2"/>
<path class="st7" d="M30,38h31.5H67c1.1,0,2-0.9,2-2s-0.9-2-2-2h-8.9H30c-1.1,0-2,0.9-2,2S28.9,38,30,38z"/>
<path class="st8" d="M63,50H30c-1.1,0-2,0.9-2,2s0.9,2,2,2h33c1.1,0,2-0.9,2-2S64.1,50,63,50z"/>
<circle class="st6" cx="21" cy="60" r="2"/>
<path class="st2" d="M58,62H30c-1.1,0-2-0.9-2-2s0.9-2,2-2h28c1.1,0,2,0.9,2,2S59.1,62,58,62z"/>
<circle class="st6" cx="21" cy="60" r="2"/>
<path class="st9" d="M58,58H30c-1.1,0-2,0.9-2,2s0.9,2,2,2h28c1.1,0,2-0.9,2-2S59.1,58,58,58z"/>
<circle class="st6" cx="21" cy="68" r="2"/>
<path class="st2" d="M48,70H30c-1.1,0-2-0.9-2-2s0.9-2,2-2h18c1.1,0,2,0.9,2,2S49.1,70,48,70z"/>
<circle class="st6" cx="21" cy="68" r="2"/>
<path class="st10" d="M48,66H30c-1.1,0-2,0.9-2,2s0.9,2,2,2h18c1.1,0,2-0.9,2-2S49.1,66,48,66z"/>
<circle class="st6" cx="21" cy="76" r="2"/>
<path class="st2" d="M38,78h-8c-1.1,0-2-0.9-2-2s0.9-2,2-2h8c1.1,0,2,0.9,2,2S39.1,78,38,78z"/>
<circle class="st6" cx="21" cy="76" r="2"/>
<path class="st11" d="M38,74h-8c-1.1,0-2,0.9-2,2s0.9,2,2,2h8c1.1,0,2-0.9,2-2S39.1,74,38,74z"/>
<path class="st12" d="M73,42h-6.5H30c-1.1,0-2,0.9-2,2s0.9,2,2,2h39.9H73c1.1,0,2-0.9,2-2S74.1,42,73,42z"/>
<path class="st13" d="M127,42h-7c-1.1,0-2,0.9-2,2s0.9,2,2,2h7c1.1,0,2-0.9,2-2S128.1,42,127,42z"/>
<path class="st13" d="M127,50h-7c-1.1,0-2,0.9-2,2s0.9,2,2,2h7c1.1,0,2-0.9,2-2S128.1,50,127,50z"/>
<path class="st13" d="M127,58h-7c-1.1,0-2,0.9-2,2s0.9,2,2,2h7c1.1,0,2-0.9,2-2S128.1,58,127,58z"/>
<path class="st13" d="M127,66h-7c-1.1,0-2,0.9-2,2s0.9,2,2,2h7c1.1,0,2-0.9,2-2S128.1,66,127,66z"/>
<path class="st13" d="M127,74h-7c-1.1,0-2,0.9-2,2s0.9,2,2,2h7c1.1,0,2-0.9,2-2S128.1,74,127,74z"/>
<path class="st13" d="M120,38h7c1.1,0,2-0.9,2-2s-0.9-2-2-2h-7c-1.1,0-2,0.9-2,2S118.9,38,120,38z"/>
<g>
	<circle class="st14" cx="74.1" cy="87.7" r="22.7"/>
	<g id="glass_1_">
		<path class="st15" d="M74.1,69.7c-9.5,0-17.4,7.4-17.9,16.8l0,0c0,0.4-0.1,0.8-0.1,1.2c0,9.9,8.1,18,18,18
			c8.3,0,15.5-5.6,17.5-13.7l0,0c0.3-1.4,0.5-2.8,0.5-4.3C92.1,77.8,84.1,69.7,74.1,69.7z"/>
		<path class="st5" d="M54.7,84.9c0.9,0.1,1.5,0.8,1.5,1.6l0,0l0,0c0.5-9.4,8.5-16.8,17.9-16.8c9.9,0,18,8.1,18,18
			c0,1.4-0.2,2.9-0.5,4.3c0.2-0.9,1.1-1.3,1.9-1.2c0.9,0.2,1.3,1,1.2,1.9c0.4-1.6,0.6-3.4,0.6-5c0-11.7-9.5-21.2-21.2-21.2
			C63,66.6,53.7,75.3,53,86.4l0,0C53,85.5,53.8,84.8,54.7,84.9z"/>
		<path class="st16" d="M97.1,109.3l-7.4-7.4c2.3-2.5,4-5.6,4.9-9.2l0,0c0.2-0.9-0.3-1.7-1.2-1.9c-0.9-0.2-1.7,0.3-1.9,1.2l0,0
			c-2,8-9.2,13.6-17.5,13.6c-9.9,0-18-8.1-18-18c0-0.4,0-0.8,0.1-1.2l0,0c0.1-0.9-0.6-1.6-1.5-1.6c-0.9-0.1-1.6,0.6-1.6,1.5l0,0
			c0,0.5-0.1,0.9-0.1,1.3c0,11.7,9.5,21.2,21.2,21.2c5,0,9.7-1.8,13.4-4.8l7.4,7.4c0.3,0.3,0.7,0.5,1.1,0.5c0.4,0,0.8-0.2,1.1-0.5
			C97.8,110.9,97.8,110,97.1,109.3z"/>
	</g>
</g>
</svg>
