<?xml version="1.0" encoding="UTF-8" standalone="no"?>
<svg width="4px" height="14px" viewBox="0 0 4 14" version="1.1" xmlns="http://www.w3.org/2000/svg" xmlns:xlink="http://www.w3.org/1999/xlink">
    <!-- Generator: Sketch 3.8.3 (29802) - http://www.bohemiancoding.com/sketch -->
    <title>Icon / ellipsis</title>
    <desc>Created with Sketch.</desc>
    <defs></defs>
    <g id="Page-1" stroke="none" stroke-width="1" fill="none" fill-rule="evenodd">
        <g id="07-Contextual-Menu" transform="translate(-957.000000, -336.000000)" fill="#8F92A6">
            <path d="M960.25,338.325 C960.25,338.758334 960.087503,339.137497 959.7625,339.4625 C959.437498,339.787503 959.058335,339.95 958.625,339.95 C958.191665,339.95 957.812502,339.787503 957.4875,339.4625 C957.162498,339.137497 957,338.758334 957,338.325 C957,337.891666 957.162498,337.512503 957.4875,337.1875 C957.812502,336.862497 958.191665,336.7 958.625,336.7 C959.058335,336.7 959.437498,336.862497 959.7625,337.1875 C960.087503,337.512503 960.25,337.891666 960.25,338.325 L960.25,338.325 Z M960.25,348.075 C960.25,348.508335 960.087503,348.887498 959.7625,349.2125 C959.437498,349.537502 959.058335,349.7 958.625,349.7 C958.191665,349.7 957.812502,349.537502 957.4875,349.2125 C957.162498,348.887498 957,348.508335 957,348.075 C957,347.641664 957.162498,347.262502 957.4875,346.9375 C957.812502,346.612497 958.191665,346.45 958.625,346.45 C959.058335,346.45 959.437498,346.612497 959.7625,346.9375 C960.087503,347.262502 960.25,347.641664 960.25,348.075 L960.25,348.075 Z M960.25,343.2 C960.25,343.633337 960.087503,344.012497 959.7625,344.3375 C959.437498,344.662503 959.058335,344.825 958.625,344.825 C958.191665,344.825 957.812502,344.662503 957.4875,344.3375 C957.162498,344.012497 957,343.633337 957,343.2 C957,342.766663 957.162498,342.387503 957.4875,342.0625 C957.812502,341.737497 958.191665,341.575 958.625,341.575 C959.058335,341.575 959.437498,341.737497 959.7625,342.0625 C960.087503,342.387503 960.25,342.766663 960.25,343.2 L960.25,343.2 Z" id="Icon-/-ellipsis"></path>
        </g>
    </g>
</svg>