<?xml version="1.0" encoding="UTF-8" standalone="no"?>
<svg width="10px" height="9px" viewBox="0 0 10 9" version="1.1" xmlns="http://www.w3.org/2000/svg" xmlns:xlink="http://www.w3.org/1999/xlink">
    <!-- Generator: Sketch 3.8.3 (29802) - http://www.bohemiancoding.com/sketch -->
    <title>Icon / line</title>
    <desc>Created with Sketch.</desc>
    <defs></defs>
    <g id="Symbols" stroke="none" stroke-width="1" fill="none" fill-rule="evenodd">
        <g id="Icon-/-line" fill="#C6C9D8">
            <path d="M5.87745116,4.3182026 C5.88069149,4.34894686 5.88235294,4.38016176 5.88235294,4.41176471 C5.88235294,4.89907478 5.48731007,5.29411765 5,5.29411765 C4.92159309,5.29411765 4.84557479,5.28389079 4.77320626,5.26469823 L2.70097346,7.04089777 C2.73936075,7.16800358 2.75999999,7.30284176 2.75999999,7.44251337 C2.75999999,8.20670417 2.14215295,8.82620321 1.38,8.82620321 C0.617847043,8.82620321 0,8.20670417 0,7.44251337 C0,6.67832257 0.617847043,6.05882353 1.38,6.05882353 C1.63729806,6.05882353 1.87814965,6.12942755 2.08433508,6.25236718 L4.12254884,4.50532681 C4.11930851,4.47458255 4.11764706,4.44336765 4.11764706,4.41176471 C4.11764706,3.92445463 4.51268993,3.52941176 5,3.52941176 C5.07840691,3.52941176 5.15442521,3.53963862 5.22679374,3.55883118 L7.29579994,1.78539729 C7.25646385,1.65721157 7.23529412,1.52107801 7.23529412,1.38 C7.23529412,0.617847043 7.85314116,0 8.61529411,0 C9.37744706,0 9.99529411,0.617847043 9.99529411,1.38 C9.99529411,2.14215295 9.37744706,2.75999999 8.61529411,2.75999999 C8.3603538,2.75999999 8.12155994,2.69086885 7.91663591,2.57032996 L5.87745116,4.3182026 Z"></path>
        </g>
    </g>
</svg>