<?xml version="1.0" encoding="utf-8"?>
<!-- Generator: Adobe Illustrator 21.0.0, SVG Export Plug-In . SVG Version: 6.00 Build 0)  -->
<!DOCTYPE svg PUBLIC "-//W3C//DTD SVG 1.1//EN" "http://www.w3.org/Graphics/SVG/1.1/DTD/svg11.dtd">
<svg version="1.1" xmlns="http://www.w3.org/2000/svg" xmlns:xlink="http://www.w3.org/1999/xlink" x="0px" y="0px"
	 viewBox="0 0 213 144" style="enable-background:new 0 0 213 144;" xml:space="preserve">
<style type="text/css">
	.st0{fill:#EFF5FA;}
	.st1{fill:none;}
	.st2{fill:#2F8AE0;}
	.st3{fill:#50AAFF;}
	.st4{fill:#D8E1E8;}
	.st5{fill:#F7FAFD;}
	.st6{fill:#E3EBF1;}
	.st7{fill:#91C3F1;}
	.st8{fill:#C1B1EF;}
	.st9{fill:#F0B999;}
	.st10{fill:#F1DA8B;}
	.st11{fill:#80E1B6;}
	.st12{fill:#2788E3;}
</style>
<g id="lappy">
	<path class="st0" d="M184,121.5H30c-4.4,0-8-3.6-8-8V19.5c0-4.4,3.6-8,8-8H184c4.4,0,8,3.6,8,8v94.1
		C192,117.9,188.4,121.5,184,121.5z"/>
	<path class="st1" d="M196,115V18c0-5.5-4.5-10-10-10H48H28c-5.5,0-10,4.5-10,10v97c0,5.5,4.5,10,10,10h134h24
		C191.5,125,196,120.5,196,115z"/>
	<path class="st2" d="M28,129h134c-1.1,0-2-0.9-2-2s0.9-2,2-2H28c-5.5,0-10-4.5-10-10V18c0-5.5,4.5-10,10-10h20c-1.1,0-2-0.9-2-2
		s0.9-2,2-2H28c-7.7,0-14,6.3-14,14v97C14,122.7,20.3,129,28,129z"/>
	<path class="st2" d="M207,136H6c-1.1,0-2,0.9-2,2s0.9,2,2,2h201c1.1,0,2-0.9,2-2C209,136.9,208.1,136,207,136z"/>
	<path class="st3" d="M186,4H48c-1.1,0-2,0.9-2,2s0.9,2,2,2h138c5.5,0,10,4.5,10,10v97c0,5.5-4.5,10-10,10h-24c-1.1,0-2,0.9-2,2
		s0.9,2,2,2h24c7.7,0,14-6.3,14-14V18C200,10.3,193.7,4,186,4z"/>
	<path class="st2" d="M6,136h201c1.1,0,2,0.9,2,2s-0.9,2-2,2H6c-1.1,0-2-0.9-2-2S4.9,136,6,136z"/>
</g>
<g id="cards">
	<path class="st4" d="M183,114H31c-1.7,0-3-1.3-3-3v2c0,1.7,1.3,3,3,3h152c1.7,0,3-1.3,3-3v-2C186,112.7,184.7,114,183,114z"/>
	<g>
		<path class="st5" d="M183,18H31c-1.7,0-3,1.3-3,3v2v16h158V23v-2C186,19.3,184.7,18,183,18z M104.5,27h-69c-0.8,0-1.5-0.7-1.5-1.5
			s0.7-1.5,1.5-1.5h69c0.8,0,1.5,0.7,1.5,1.5S105.3,27,104.5,27z"/>
		<path class="st5" d="M28,111c0,1.7,1.3,3,3,3h152c1.7,0,3-1.3,3-3V40H28V111z"/>
	</g>
	<path class="st6" d="M104.5,24h-69c-0.8,0-1.5,0.7-1.5,1.5s0.7,1.5,1.5,1.5h69c0.8,0,1.5-0.7,1.5-1.5S105.3,24,104.5,24z"/>
	<path class="st6" d="M55,30H35.5c-0.8,0-1.5,0.7-1.5,1.5s0.7,1.5,1.5,1.5H55c0.8,0,1.5-0.7,1.5-1.5S55.8,30,55,30z"/>
	<path class="st6" d="M142.5,24h-30c-0.8,0-1.5,0.7-1.5,1.5s0.7,1.5,1.5,1.5h30c0.8,0,1.5-0.7,1.5-1.5S143.3,24,142.5,24z"/>
	<path class="st7" d="M151.5,28L151.5,28c-0.3,0-0.5-0.2-0.5-0.5v-4c0-0.3,0.2-0.5,0.5-0.5h0c0.3,0,0.5,0.2,0.5,0.5v4
		C152,27.8,151.8,28,151.5,28z"/>
	<path class="st7" d="M149,25.5L149,25.5c0-0.3,0.2-0.5,0.5-0.5h4c0.3,0,0.5,0.2,0.5,0.5v0c0,0.3-0.2,0.5-0.5,0.5h-4
		C149.2,26,149,25.8,149,25.5z"/>
</g>
<g id="metrics">
	<rect x="42" y="46" class="st7" width="137" height="2"/>
	<rect x="34" y="46" class="st6" width="6" height="2"/>
	<rect x="42" y="51" class="st8" width="126" height="2"/>
	<rect x="34" y="51" class="st6" width="6" height="2"/>
	<rect x="42" y="56" class="st9" width="121" height="2"/>
	<rect x="34" y="56" class="st6" width="6" height="2"/>
	<rect x="42" y="61" class="st10" width="105" height="2"/>
	<rect x="34" y="61" class="st6" width="6" height="2"/>
	<rect x="42" y="66" class="st11" width="98" height="2"/>
	<rect x="34" y="66" class="st6" width="6" height="2"/>
	<rect x="42" y="71" class="st7" width="98" height="2"/>
	<rect x="34" y="71" class="st6" width="6" height="2"/>
	<rect x="42" y="76" class="st8" width="48" height="2"/>
	<rect x="34" y="76" class="st6" width="6" height="2"/>
	<rect x="42" y="81" class="st9" width="38" height="2"/>
	<rect x="34" y="81" class="st6" width="6" height="2"/>
	<rect x="42" y="86" class="st10" width="28" height="2"/>
	<rect x="34" y="86" class="st6" width="6" height="2"/>
	<rect x="42" y="91" class="st11" width="25" height="2"/>
	<rect x="34" y="91" class="st6" width="6" height="2"/>
	<rect x="42" y="96" class="st7" width="10" height="2"/>
	<rect x="34" y="96" class="st6" width="6" height="2"/>
	<rect x="42" y="101" class="st8" width="4" height="2"/>
	<rect x="34" y="101" class="st6" width="6" height="2"/>
	<rect x="42" y="106" class="st10" width="2" height="2"/>
	<rect x="34" y="106" class="st6" width="6" height="2"/>
</g>
<g id="glass">
	<path class="st1" d="M105,42c-12.1,0-22.2,9.5-22.9,21.5c0,0,0,0,0,0c0,0.5-0.1,1-0.1,1.5c0,12.7,10.3,23,23,23
		c10.6,0,19.8-7.2,22.3-17.5c0,0,0,0,0,0c0.4-1.8,0.7-3.6,0.7-5.5C128,52.3,117.7,42,105,42z"/>
	<path class="st12" d="M80.2,61.4c1.1,0.1,1.9,1,1.9,2.1c0,0,0,0,0,0c0,0,0,0,0,0C82.8,51.5,92.9,42,105,42c12.7,0,23,10.3,23,23
		c0,1.8-0.2,3.7-0.7,5.5c0.3-1.1,1.4-1.7,2.4-1.5c1.1,0.3,1.7,1.3,1.5,2.4c0.5-2.1,0.8-4.3,0.8-6.4c0-14.9-12.1-27-27-27
		c-14.2,0-26,11.1-26.9,25.3c0,0,0,0,0,0C78.1,62.2,79.1,61.3,80.2,61.4z"/>
	<path class="st3" d="M134.4,92.6l-9.4-9.4c2.9-3.2,5.1-7.2,6.2-11.7c0,0,0,0,0,0c0.3-1.1-0.4-2.2-1.5-2.4c-1.1-0.3-2.2,0.4-2.4,1.5
		c0,0,0,0,0,0C124.8,80.8,115.6,88,105,88c-12.7,0-23-10.3-23-23c0-0.5,0-1,0.1-1.5c0,0,0,0,0,0c0.1-1.1-0.8-2.1-1.9-2.1
		c-1.1-0.1-2.1,0.8-2.1,1.9c0,0,0,0,0,0c0,0.6-0.1,1.2-0.1,1.7c0,14.9,12.1,27,27,27c6.4,0,12.4-2.3,17.1-6.1l9.5,9.5
		c0.4,0.4,0.9,0.6,1.4,0.6s1-0.2,1.4-0.6C135.2,94.6,135.2,93.4,134.4,92.6z"/>
</g>
</svg>
