<?xml version="1.0" encoding="UTF-8" standalone="no"?>
<svg width="165px" height="117px" viewBox="0 0 165 117" version="1.1" xmlns="http://www.w3.org/2000/svg" xmlns:xlink="http://www.w3.org/1999/xlink">
    <!-- Generator: Sketch 41.1 (35376) - http://www.bohemiancoding.com/sketch -->
    <title>no-data-laptop</title>
    <defs></defs>
    <g id="illustration" stroke="none" stroke-width="1" fill="none" fill-rule="evenodd">
        <g id="no-data">
            <path d="M143,109 L125.8,109 C124.7,109 123.8,108.1 123.8,107 C123.8,105.9 124.7,105 125.8,105 L143,105 C148.5,105 153,100.5 153,95 L153,14 C153,8.5 148.5,4 143,4 L36.6,4 C35.5,4 34.6,3.1 34.6,2 C34.6,0.9 35.5,0 36.6,0 L143,0 C150.7,0 157,6.3 157,14 L157,95 C157,102.7 150.7,109 143,109 Z" id="right-frame" fill="#50AAFF"></path>
            <path d="M124.1,109 L22,109 C14.3,109 8,102.7 8,95 L8,14 C8,6.3 14.3,0 22,0 L67.3,0 C68.4,0 69.3,0.9 69.3,2 C69.3,3.1 68.4,4 67.3,4 L22,4 C16.5,4 12,8.5 12,14 L12,95 C12,100.5 16.5,105 22,105 L124.1,105 C125.2,105 126.1,105.9 126.1,107 C126.1,108.1 125.2,109 124.1,109 Z" id="left-frame" fill="#2788E3"></path>
            <path d="M2,113 L163,113 C164.1,113 165,113.9 165,115 L165,115 C165,116.1 164.1,117 163,117 L2,117 C0.9,117 0,116.1 0,115 L0,115 C0,113.9 0.9,113 2,113 Z" id="base" fill="#2788E3"></path>
            <path d="M23,11 L142,11 C144.2,11 146,12.8 146,15 L146,94 C146,96.2 144.2,98 142,98 L23,98 C20.8,98 19,96.2 19,94 L19,15 C19,12.8 20.8,11 23,11 Z" id="screen" fill="#EFF5FA"></path>
            <path d="M98.2,64 L86,42.5 C84.1,39.2 81,39.2 79.1,42.5 L66.8,63.6 C64.9,66.9 66.4,70 70.2,70 L94.7,70 C98.5,70 100.1,67.3 98.2,64 Z M82.6,66 C81.4,66 80.5,65.1 80.5,63.9 C80.5,62.7 81.4,61.8 82.6,61.8 C83.8,61.8 84.7,62.7 84.7,63.9 L84.7,63.9 C84.8,65 83.8,66 82.6,66 L82.6,66 L82.6,66 Z M84.1,60.4 L81.1,60.4 L80.1,48.1 L85.1,48.1 L84.1,60.4 Z" id="warning-icon" fill="#2788E3"></path>
        </g>
    </g>
</svg>
