<?xml version="1.0" encoding="utf-8"?>
<!-- Generator: Adobe Illustrator 19.2.1, SVG Export Plug-In . SVG Version: 6.00 Build 0)  -->
<svg version="1.1" id="Layer_1" xmlns="http://www.w3.org/2000/svg" xmlns:xlink="http://www.w3.org/1999/xlink" x="0px" y="0px"
	 viewBox="0 0 49 44" style="enable-background:new 0 0 49 44;" xml:space="preserve">
<style type="text/css">
	.st0{fill:#4BA8FF;}
	.st1{fill:#2788E3;}
	.st2{fill:#EDF3F8;}
	.st3{fill:#FFFFFF;}
</style>
<title>Pricing-Cal</title>
<desc>Created with Sketch.</desc>
<g>
	<path class="st0" d="M15.2,18.8c-0.1-0.4-0.2-0.7-0.2-1.1c-0.8-2.6-3.2-4.4-6-4.4c-3.5,0-6.3,2.8-6.3,6.3c0,1.8,0.8,3.5,2,4.6
		c-2.3,1.6-3.9,4.4-4.2,7.8c-0.1,0.9,0.1,1.8,0.7,2.6c0.7,0.8,1.6,1.3,2.7,1.3H12c-0.2-0.5-0.3-1.1-0.4-1.8H3.8
		c-0.5,0-1-0.2-1.3-0.6c-0.3-0.4-0.4-0.8-0.3-1.3c0.3-3.2,1.9-5.8,4.1-7C7.1,24.7,8,24.5,9,24.5c1,0,1.9,0.2,2.7,0.7
		c0.7,0.4,1.3,0.9,1.9,1.5c0.3-0.5,0.6-1.1,0.9-1.5c-0.4-0.4-0.8-0.7-1.2-1c1.2-1.1,2-2.8,2-4.5C15.2,19.2,15.2,19,15.2,18.8z
		 M11.6,23.2C10.8,23.7,9.9,24,8.9,24c-1,0-1.9-0.3-2.6-0.8c-1.2-0.8-1.9-2.2-1.9-3.7c0-2.5,2-4.5,4.5-4.5c2.5,0,4.6,2,4.6,4.5
		C13.5,21,12.7,22.3,11.6,23.2z"/>
	<path class="st0" d="M48.7,32c-0.4-3.5-2-6.3-4.3-7.9c1.2-1.1,2-2.8,2-4.6c0-3.5-2.8-6.3-6.3-6.3c-2.8,0-5.2,1.9-6,4.4
		c-0.1,0.4-0.1,0.8-0.2,1.1c0,0.2,0,0.5,0,0.7c0,1.8,0.8,3.4,2,4.6c-0.5,0.3-0.9,0.7-1.4,1.2c0.3,0.5,0.6,1,0.9,1.6
		c0.6-0.7,1.3-1.3,2-1.7c0.8-0.5,1.8-0.7,2.7-0.7c1,0,1.9,0.3,2.7,0.7c2.2,1.2,3.8,3.8,4.1,7.1c0.1,0.4,0,0.8-0.3,1.2
		c-0.3,0.4-0.8,0.6-1.3,0.6h-8.1c0,0.6-0.1,1.2-0.3,1.8h8.4c1,0,2-0.5,2.7-1.3C48.5,33.8,48.8,32.9,48.7,32z M40.1,24
		c-1,0-1.9-0.3-2.6-0.9c-1.2-0.8-1.9-2.2-1.9-3.7c0-2.5,2-4.5,4.5-4.5c2.5,0,4.6,2,4.6,4.5c0,1.5-0.8,2.9-1.9,3.7
		C42,23.7,41.1,24,40.1,24z"/>
</g>
<path class="st1" d="M35.7,33.4C35.7,33.3,35.7,33.3,35.7,33.4c0-0.3-0.1-0.6-0.1-0.8c-0.1-0.7-0.2-1.4-0.4-2.1
	c-0.1-0.4-0.2-0.8-0.4-1.2c-0.1-0.3-0.2-0.7-0.4-1c-0.3-0.6-0.6-1.2-0.9-1.8c-0.7-1.2-1.6-2.2-2.5-3c-0.4-0.3-0.8-0.6-1.2-0.9
	c0.4-0.3,0.8-0.7,1.1-1.1c1.2-1.4,1.9-3.3,1.9-5.3c0-4.5-3.7-8.2-8.2-8.2s-8.2,3.7-8.2,8.2c0,2,0.7,3.8,1.8,5.2
	c0.3,0.4,0.7,0.8,1.1,1.1c-0.4,0.3-0.8,0.6-1.2,0.9c-0.9,0.8-1.8,1.8-2.5,2.9c-0.4,0.6-0.7,1.1-0.9,1.8c-0.1,0.3-0.3,0.6-0.4,0.9
	c-0.1,0.3-0.3,0.7-0.4,1.1c-0.3,0.8-0.4,1.7-0.6,2.6c0,0.2-0.1,0.5-0.1,0.8c0,0,0,0.1,0,0.1l0,0.3c0,0.1,0,0.2,0,0.3
	c0,0.6,0.2,1.2,0.5,1.8c0.7,1.4,2.1,2.3,3.8,2.3h14c1.3,0,2.4-0.5,3.3-1.5c0.2-0.2,0.4-0.5,0.5-0.8c0.3-0.5,0.4-1.1,0.5-1.8
	C35.7,33.8,35.7,33.6,35.7,33.4z M19.9,20.4c-1-1.1-1.6-2.6-1.6-4.2c0-3.4,2.8-6.2,6.2-6.2s6.2,2.8,6.2,6.2c0,1.6-0.6,3.1-1.7,4.2
	c-0.4,0.4-0.8,0.8-1.3,1.1c-0.9,0.6-2,0.9-3.2,0.9c-1.2,0-2.3-0.3-3.3-0.9C20.7,21.2,20.3,20.8,19.9,20.4z M33.2,35.3
	c-0.4,0.5-1.1,0.8-1.8,0.8h-14c-0.6,0-1.2-0.3-1.6-0.7c-0.4-0.4-0.7-1-0.7-1.6c0,0,0,0,0-0.1c0.1-1,0.3-1.9,0.5-2.8
	c0.3-0.9,0.6-1.8,1-2.6c0.8-1.5,1.8-2.8,3-3.7c0.5-0.4,1-0.7,1.5-0.9c1-0.5,2.1-0.8,3.3-0.8c1.2,0,2.3,0.3,3.4,0.8
	c0.5,0.3,1,0.6,1.5,0.9c1.3,1,2.3,2.3,3.1,4c0.4,0.9,0.8,1.9,1,2.9c0.2,0.6,0.3,1.3,0.3,2c0,0,0,0.1,0,0.1
	C33.8,34.2,33.6,34.8,33.2,35.3C33.2,35.3,33.2,35.3,33.2,35.3z"/>
<g>
	<circle class="st2" cx="8.9" cy="19.5" r="3"/>
	<path class="st2" d="M9,26c-2.7,0-5,2.7-5.4,6.4c0,0.1,0.1,0.2,0.2,0.2h7.9c0.1-0.6,0.2-1.2,0.3-1.8c0-0.1,0-0.2,0.1-0.4
		c0.2-0.8,0.5-1.6,0.8-2.3C11.9,26.8,10.5,26,9,26z"/>
	<circle class="st2" cx="40.1" cy="19.5" r="3.1"/>
	<path class="st2" d="M40.1,26c-1.6,0-3.1,0.9-4,2.5c0.5,1.3,0.8,2.7,1,4.1h8.2c0.1,0,0.2-0.1,0.2-0.1C45.1,28.7,42.8,26,40.1,26z"
		/>
	<path class="st2" d="M22.1,19.7c0.7,0.5,1.5,0.7,2.4,0.7c0.9,0,1.7-0.3,2.3-0.7c1.1-0.8,1.9-2,1.9-3.5c0-2.3-1.9-4.2-4.2-4.2
		c-2.3,0-4.2,1.9-4.2,4.2C20.3,17.6,21,18.9,22.1,19.7z"/>
	<path class="st2" d="M31.5,32.4c-0.6-3.2-2.3-5.7-4.5-6.9c-0.8-0.4-1.7-0.7-2.6-0.7c-0.9,0-1.7,0.2-2.5,0.6c-2,1-3.6,3.2-4.4,6
		c-0.2,0.7-0.3,1.5-0.4,2.3c0,0.1,0,0.2,0.1,0.2c0.1,0.1,0.1,0.1,0.2,0.1h14c0.1,0,0.2-0.1,0.2-0.1c0,0,0.1-0.1,0.1-0.1
		c0-0.1,0-0.3-0.1-0.4C31.6,33.1,31.6,32.8,31.5,32.4z"/>
</g>
<g>
	<path class="st3" d="M6.3,23.2C7,23.7,7.9,24,8.9,24c1,0,1.9-0.3,2.7-0.9c1.1-0.8,1.9-2.2,1.9-3.7c0-2.5-2-4.5-4.6-4.5
		c-2.5,0-4.5,2-4.5,4.5C4.4,21,5.1,22.4,6.3,23.2z M8.9,16.5c1.7,0,3.1,1.4,3.1,3s-1.4,3-3.1,3c-1.7,0-3-1.4-3-3S7.2,16.5,8.9,16.5z
		"/>
	<path class="st3" d="M9,24.5c-1,0-1.9,0.3-2.8,0.7c-2.2,1.2-3.7,3.8-4.1,7c-0.1,0.4,0,0.9,0.3,1.3C2.8,33.8,3.3,34,3.8,34h7.8
		c0-0.1,0-0.2,0-0.3l0-0.4l0,0c0-0.3,0.1-0.5,0.1-0.7H3.8c-0.1,0-0.2-0.1-0.2-0.2C4,28.7,6.3,26,9,26c1.5,0,2.9,0.8,3.9,2.2
		c0.1-0.3,0.2-0.5,0.3-0.8c0.1-0.3,0.2-0.5,0.4-0.7c-0.5-0.6-1.2-1.1-1.9-1.5C10.9,24.7,10,24.5,9,24.5z"/>
	<path class="st3" d="M37.5,23.2c0.7,0.5,1.7,0.9,2.6,0.9c1,0,1.9-0.3,2.6-0.9c1.2-0.8,1.9-2.2,1.9-3.7c0-2.5-2-4.5-4.6-4.5
		c-2.5,0-4.5,2-4.5,4.5C35.5,21,36.3,22.4,37.5,23.2z M40.1,16.5c1.7,0,3.1,1.4,3.1,3s-1.4,3-3.1,3c-1.7,0-3-1.4-3-3
		S38.4,16.5,40.1,16.5z"/>
	<path class="st3" d="M46.9,32.2c-0.3-3.3-1.9-5.9-4.1-7.1c-0.8-0.5-1.8-0.7-2.7-0.7c-1,0-1.9,0.3-2.7,0.7c-0.7,0.4-1.4,1-2,1.7
		c0.1,0.2,0.3,0.5,0.4,0.8c0.1,0.3,0.2,0.5,0.3,0.8c1-1.5,2.4-2.5,4-2.5c2.7,0,5,2.7,5.4,6.5c0,0.1-0.1,0.1-0.2,0.1h-8.2
		c0,0.2,0.1,0.4,0.1,0.7c0,0,0,0.1,0,0.1c0,0.3,0,0.5,0,0.7h8.1c0.5,0,1-0.2,1.3-0.6C46.9,33,47,32.6,46.9,32.2z"/>
	<path class="st3" d="M21.2,21.5c1,0.6,2.1,0.9,3.3,0.9c1.2,0,2.3-0.3,3.2-0.9c0.5-0.3,0.9-0.7,1.3-1.1c1-1.1,1.7-2.6,1.7-4.2
		c0-3.4-2.8-6.2-6.2-6.2s-6.2,2.8-6.2,6.2c0,1.6,0.6,3.1,1.6,4.2C20.3,20.8,20.7,21.2,21.2,21.5z M24.5,12c2.3,0,4.2,1.9,4.2,4.2
		c0,1.4-0.7,2.7-1.9,3.5c-0.7,0.5-1.5,0.7-2.3,0.7c-0.9,0-1.7-0.3-2.4-0.7c-1.1-0.8-1.8-2-1.8-3.5C20.3,13.9,22.2,12,24.5,12z"/>
	<path class="st3" d="M33.7,33.5c-0.1-0.7-0.2-1.3-0.3-2c-0.2-1-0.6-2-1-2.9c-0.8-1.6-1.8-3-3.1-4c-0.5-0.4-1-0.7-1.5-0.9
		c-1-0.5-2.2-0.8-3.4-0.8c-1.1,0-2.2,0.3-3.3,0.8c-0.5,0.3-1,0.6-1.5,0.9c-1.2,0.9-2.2,2.2-3,3.7c-0.4,0.8-0.7,1.7-1,2.6
		c-0.3,0.9-0.4,1.8-0.5,2.8c0,0,0,0,0,0.1c0,0.6,0.3,1.2,0.7,1.6c0.4,0.4,1,0.7,1.6,0.7h14c0.7,0,1.3-0.3,1.8-0.8c0,0,0,0,0,0
		c0.4-0.5,0.6-1.1,0.5-1.7C33.7,33.6,33.7,33.5,33.7,33.5z M17.2,34c-0.1-0.1-0.1-0.1-0.1-0.2c0.1-0.8,0.2-1.6,0.4-2.3
		c0.8-2.8,2.4-5,4.4-6c0.8-0.4,1.6-0.6,2.5-0.6c0.9,0,1.8,0.2,2.6,0.7c2.2,1.1,3.9,3.7,4.5,6.9c0.1,0.3,0.1,0.7,0.2,1
		c0,0.1,0,0.3,0.1,0.4c0,0,0,0.1-0.1,0.1c0,0-0.1,0.1-0.2,0.1h-14C17.3,34.1,17.3,34.1,17.2,34z"/>
</g>
</svg>
