<?xml version="1.0" encoding="utf-8"?>
<!-- Generator: Adobe Illustrator 19.2.1, SVG Export Plug-In . SVG Version: 6.00 Build 0)  -->
<svg version="1.1" id="Layer_1" xmlns="http://www.w3.org/2000/svg" xmlns:xlink="http://www.w3.org/1999/xlink" x="0px" y="0px"
	 viewBox="0 0 49 44" style="enable-background:new 0 0 49 44;" xml:space="preserve">
<style type="text/css">
	.st0{fill:#2788E3;}
	.st1{fill:#FFFFFF;}
	.st2{fill:#EDF3F8;}
	.st3{fill:#4BA8FF;}
</style>
<g id="Layer_1_1_">
	<title>Pricing-Cal</title>
	<desc>Created with Sketch.</desc>
</g>
<g id="Layer_2">
</g>
<g id="Layer_3">
</g>
<g>
	<circle class="st0" cx="24.5" cy="12" r="7.5"/>
	<circle class="st1" cx="24.5" cy="12" r="6"/>
	<circle class="st2" cx="24.5" cy="12" r="4.5"/>
	<circle class="st0" cx="41.5" cy="32" r="7.5"/>
	<circle class="st0" cx="7.5" cy="32" r="7.5"/>
	<circle class="st1" cx="7.5" cy="32" r="6"/>
	<circle class="st1" cx="41.5" cy="32" r="6"/>
	<g>
		<path class="st3" d="M12.5,27c-0.2,0-0.5-0.1-0.7-0.2c-0.4-0.4-0.5-1-0.1-1.4l7-8c0.4-0.4,1-0.5,1.4-0.1c0.4,0.4,0.5,1,0.1,1.4
			l-7,8C13.1,26.9,12.8,27,12.5,27z"/>
	</g>
	<g>
		<path class="st3" d="M36.5,27c-0.3,0-0.6-0.1-0.8-0.3l-7-8c-0.4-0.4-0.3-1,0.1-1.4c0.4-0.4,1-0.3,1.4,0.1l7,8
			c0.4,0.4,0.3,1-0.1,1.4C37,26.9,36.7,27,36.5,27z"/>
	</g>
	<circle class="st2" cx="7.5" cy="32" r="4.5"/>
	<circle class="st2" cx="41.5" cy="32" r="4.5"/>
</g>
</svg>
