<?xml version="1.0" encoding="UTF-8" standalone="no"?>
<svg width="17px" height="15px" viewBox="0 0 17 15" version="1.1" xmlns="http://www.w3.org/2000/svg" xmlns:xlink="http://www.w3.org/1999/xlink">
    <!-- Generator: Sketch 3.7 (28169) - http://www.bohemiancoding.com/sketch -->
    <title>Icon / Line [Inactive]</title>
    <desc>Created with Sketch.</desc>
    <defs></defs>
    <g id="Symbols" stroke="none" stroke-width="1" fill="none" fill-rule="evenodd">
        <g id="Icon-/-Line-[Inactive]">
            <path d="M8.5,9 C9.32842712,9 10,8.32842712 10,7.5 C10,6.67157288 9.32842712,6 8.5,6 C7.67157288,6 7,6.67157288 7,7.5 C7,8.32842712 7.67157288,9 8.5,9 Z M1.5,15 C2.32842712,15 3,14.3284271 3,13.5 C3,12.6715729 2.32842712,12 1.5,12 C0.671572875,12 0,12.6715729 0,13.5 C0,14.3284271 0.671572875,15 1.5,15 Z M15.5,3 C16.3284271,3 17,2.32842712 17,1.5 C17,0.671572875 16.3284271,0 15.5,0 C14.6715729,0 14,0.671572875 14,1.5 C14,2.32842712 14.6715729,3 15.5,3 Z" id="Oval-2" fill="#C6C9D8"></path>
            <path d="M1.5,13.5 L15.5,1.5" id="Line" stroke="#C6C9D8" stroke-linecap="square"></path>
        </g>
    </g>
</svg>