<?xml version="1.0" encoding="UTF-8" standalone="no"?>
<svg width="22px" height="22px" viewBox="0 0 22 22" version="1.1" xmlns="http://www.w3.org/2000/svg" xmlns:xlink="http://www.w3.org/1999/xlink">
    <!-- Generator: Sketch 39.1 (31720) - http://www.bohemiancoding.com/sketch -->
    <title>search</title>
    <desc>Created with Sketch.</desc>
    <defs></defs>
    <g id="16-x-16-solid" stroke="none" stroke-width="1" fill="none" fill-rule="evenodd">
        <g id="search">
            <g id="Page-1" transform="translate(3.000000, 3.000000)">
                <g id="Group-5">
                    <path d="M7,0 C3.134,0 0,3.134 0,7 C0,10.866 3.134,14 7,14 C10.866,14 14,10.866 14,7 C14,3.134 10.866,0 7,0 M7,2 C9.757,2 12,4.243 12,7 C12,9.757 9.757,12 7,12 C4.243,12 2,9.757 2,7 C2,4.243 4.243,2 7,2" id="Fill-1" fill="#6E859D"></path>
                    <path d="M15,15 L12,12" id="Stroke-3" stroke="#6E859D" stroke-width="2" stroke-linecap="round"></path>
                </g>
                <g id="Group-10">
                    <path d="M7,0 C3.134,0 0,3.134 0,7 C0,10.866 3.134,14 7,14 C10.866,14 14,10.866 14,7 C14,3.134 10.866,0 7,0 M7,2 C9.757,2 12,4.243 12,7 C12,9.757 9.757,12 7,12 C4.243,12 2,9.757 2,7 C2,4.243 4.243,2 7,2" id="Fill-6" fill="#6E859D"></path>
                    <path d="M15,15 L12,12" id="Stroke-8" stroke="#6E859D" stroke-width="2" stroke-linecap="round"></path>
                </g>
            </g>
        </g>
    </g>
</svg>