<?xml version="1.0" encoding="UTF-8" standalone="no"?>
<svg width="22px" height="9px" viewBox="0 0 22 9" version="1.1" xmlns="http://www.w3.org/2000/svg" xmlns:xlink="http://www.w3.org/1999/xlink">
    <!-- Generator: Sketch 39.1 (31720) - http://www.bohemiancoding.com/sketch -->
    <title>val_asc</title>
    <desc>Created with Sketch.</desc>
    <defs></defs>
    <g id="Symbols" stroke="none" stroke-width="1" fill="none" fill-rule="evenodd">
        <g id="Component-/-Sort-A-Z" transform="translate(-11.000000, -15.000000)" fill="#696D84">
            <g id="Sort">
                <g>
                    <g id="val_asc" transform="translate(11.000000, 15.000000)">
                        <path d="M3.5739,7e-05 L-0.000100000001,8.45607 L2.4469,8.45607 L3.0469,6.95607 L6.2849,6.95607 L6.8969,8.45607 L9.3919,8.45607 L5.8169,7e-05 L3.5739,7e-05 Z M4.6769,2.75807 L5.6129,5.14507 L3.7299,5.14507 L4.6769,2.75807 Z" id="Fill-1"></path>
                        <polygon id="Fill-2" points="14.0724 0.06037 14.0724 2.02737 18.1384 2.02737 13.9284 6.76437 13.9284 8.45537 21.3524 8.45537 21.3524 6.48937 17.1424 6.48937 21.3524 1.75137 21.3524 0.06037"></polygon>
                        <polygon id="Fill-3" points="13.9282 4.45557 11.4282 1.95557 11.4282 3.62257 8.9282 3.62257 8.9282 5.28857 11.4282 5.28857 11.4282 6.95557"></polygon>
                    </g>
                </g>
            </g>
        </g>
    </g>
</svg>