<?xml version="1.0" encoding="iso-8859-1"?>
<!-- Generator: Adobe Illustrator 18.1.1, SVG Export Plug-In . SVG Version: 6.00 Build 0)  -->
<!DOCTYPE svg PUBLIC "-//W3C//DTD SVG 1.1//EN" "http://www.w3.org/Graphics/SVG/1.1/DTD/svg11.dtd">
<svg version="1.1" xmlns="http://www.w3.org/2000/svg" xmlns:xlink="http://www.w3.org/1999/xlink" x="0px" y="0px"
	 viewBox="0 0 48 48" style="enable-background:new 0 0 48 48;" xml:space="preserve">
<g id="Icons">
	<g>
		<path d="M33,28c2.757,0,5,2.243,5,5s-2.243,5-5,5s-5-2.243-5-5S30.243,28,33,28 M33,26c-3.866,0-7,3.134-7,7c0,3.866,3.134,7,7,7
			s7-3.134,7-7C40,29.134,36.866,26,33,26L33,26z"/>
	</g>
	<polygon points="26,18 26,16 10,16 10,8 8,8 8,34 10,34 26,34 26,32 10,32 10,18 	"/>
	<g>
		<path d="M33,12c2.757,0,5,2.243,5,5s-2.243,5-5,5s-5-2.243-5-5S30.243,12,33,12 M33,10c-3.866,0-7,3.134-7,7c0,3.866,3.134,7,7,7
			s7-3.134,7-7C40,13.134,36.866,10,33,10L33,10z"/>
	</g>
</g>
<g id="Guides" style="display:none;">
</g>
</svg>
